<svg width="2139" height="897" viewBox="0 0 2139 897" fill="none" xmlns="http://www.w3.org/2000/svg">
<path d="M108.999 814C136.304 814 159 791.353 159 764C159 736.695 136.254 714 108.949 714C81.5973 714 59 736.695 59 764C59 791.353 81.6454 814 108.999 814ZM109.001 805.667C85.8599 805.667 67.3767 787.136 67.3767 764C67.3767 740.91 85.8097 722.333 108.949 722.333C132.038 722.333 150.615 740.912 150.665 764C150.713 787.139 132.086 805.667 108.997 805.667M108.997 761.256C116.104 761.304 121.791 755.226 121.791 747.234C121.791 739.784 116.104 733.558 108.997 733.558C101.89 733.558 96.2027 739.784 96.2027 747.236C96.2027 755.226 101.888 761.208 108.997 761.256ZM86.1548 789.05H131.793C133.755 789.05 134.736 787.726 134.736 785.961C134.736 780.471 126.499 766.305 108.999 766.305C91.4988 766.305 83.2622 780.471 83.2622 785.961C83.2622 787.726 84.2431 789.05 86.1548 789.05Z" fill="#006CA9"/>
<path d="M504.999 814C532.304 814 555 791.353 555 764C555 736.695 532.254 714 504.949 714C477.597 714 455 736.695 455 764C455 791.353 477.645 814 504.999 814ZM505.001 805.667C481.86 805.667 463.377 787.136 463.377 764C463.377 740.91 481.81 722.333 504.949 722.333C528.038 722.333 546.615 740.912 546.665 764C546.713 787.139 528.086 805.667 504.997 805.667M504.997 761.256C512.104 761.304 517.791 755.226 517.791 747.234C517.791 739.784 512.104 733.558 504.997 733.558C497.89 733.558 492.203 739.784 492.203 747.236C492.203 755.226 497.888 761.208 504.997 761.256ZM482.155 789.05H527.793C529.755 789.05 530.736 787.726 530.736 785.961C530.736 780.471 522.499 766.305 504.999 766.305C487.499 766.305 479.262 780.471 479.262 785.961C479.262 787.726 480.243 789.05 482.155 789.05Z" fill="#006CA9"/>
<path d="M372.999 814C400.304 814 423 791.353 423 764C423 736.695 400.254 714 372.949 714C345.597 714 323 736.695 323 764C323 791.353 345.645 814 372.999 814ZM373.001 805.667C349.86 805.667 331.377 787.136 331.377 764C331.377 740.91 349.81 722.333 372.949 722.333C396.038 722.333 414.615 740.912 414.665 764C414.713 787.139 396.086 805.667 372.997 805.667M372.997 761.256C380.104 761.304 385.791 755.226 385.791 747.234C385.791 739.784 380.104 733.558 372.997 733.558C365.89 733.558 360.203 739.784 360.203 747.236C360.203 755.226 365.888 761.208 372.997 761.256ZM350.155 789.05H395.793C397.755 789.05 398.736 787.726 398.736 785.961C398.736 780.471 390.499 766.305 372.999 766.305C355.499 766.305 347.262 780.471 347.262 785.961C347.262 787.726 348.243 789.05 350.155 789.05Z" fill="#006CA9"/>
<path d="M240.999 814C268.304 814 291 791.353 291 764C291 736.695 268.254 714 240.949 714C213.597 714 191 736.695 191 764C191 791.353 213.645 814 240.999 814ZM241.001 805.667C217.86 805.667 199.377 787.136 199.377 764C199.377 740.91 217.81 722.333 240.949 722.333C264.038 722.333 282.615 740.912 282.665 764C282.713 787.139 264.086 805.667 240.997 805.667M240.997 761.256C248.104 761.304 253.791 755.226 253.791 747.234C253.791 739.784 248.104 733.558 240.997 733.558C233.89 733.558 228.203 739.784 228.203 747.236C228.203 755.226 233.888 761.208 240.997 761.256ZM218.155 789.05H263.793C265.755 789.05 266.736 787.726 266.736 785.961C266.736 780.471 258.499 766.305 240.999 766.305C223.499 766.305 215.262 780.471 215.262 785.961C215.262 787.726 216.243 789.05 218.155 789.05Z" fill="#006CA9"/>
<path d="M1693 814C1720.3 814 1743 791.353 1743 764C1743 736.695 1720.25 714 1692.95 714C1665.6 714 1643 736.695 1643 764C1643 791.353 1665.65 814 1693 814ZM1693 805.667C1669.86 805.667 1651.38 787.136 1651.38 764C1651.38 740.91 1669.81 722.333 1692.95 722.333C1716.04 722.333 1734.61 740.912 1734.67 764C1734.71 787.139 1716.09 805.667 1693 805.667M1693 761.256C1700.1 761.304 1705.79 755.226 1705.79 747.234C1705.79 739.784 1700.1 733.558 1693 733.558C1685.89 733.558 1680.2 739.784 1680.2 747.236C1680.2 755.226 1685.89 761.208 1693 761.256ZM1670.15 789.05H1715.79C1717.75 789.05 1718.74 787.726 1718.74 785.961C1718.74 780.471 1710.5 766.305 1693 766.305C1675.5 766.305 1667.26 780.471 1667.26 785.961C1667.26 787.726 1668.24 789.05 1670.15 789.05Z" fill="#006CA9"/>
<path d="M2089 814C2116.3 814 2139 791.353 2139 764C2139 736.695 2116.25 714 2088.95 714C2061.6 714 2039 736.695 2039 764C2039 791.353 2061.65 814 2089 814ZM2089 805.667C2065.86 805.667 2047.38 787.136 2047.38 764C2047.38 740.91 2065.81 722.333 2088.95 722.333C2112.04 722.333 2130.61 740.912 2130.67 764C2130.71 787.139 2112.09 805.667 2089 805.667M2089 761.256C2096.1 761.304 2101.79 755.226 2101.79 747.234C2101.79 739.784 2096.1 733.558 2089 733.558C2081.89 733.558 2076.2 739.784 2076.2 747.236C2076.2 755.226 2081.89 761.208 2089 761.256ZM2066.15 789.05H2111.79C2113.75 789.05 2114.74 787.726 2114.74 785.961C2114.74 780.471 2106.5 766.305 2089 766.305C2071.5 766.305 2063.26 780.471 2063.26 785.961C2063.26 787.726 2064.24 789.05 2066.15 789.05Z" fill="#006CA9"/>
<path d="M1957 814C1984.3 814 2007 791.353 2007 764C2007 736.695 1984.25 714 1956.95 714C1929.6 714 1907 736.695 1907 764C1907 791.353 1929.65 814 1957 814ZM1957 805.667C1933.86 805.667 1915.38 787.136 1915.38 764C1915.38 740.91 1933.81 722.333 1956.95 722.333C1980.04 722.333 1998.61 740.912 1998.67 764C1998.71 787.139 1980.09 805.667 1957 805.667M1957 761.256C1964.1 761.304 1969.79 755.226 1969.79 747.234C1969.79 739.784 1964.1 733.558 1957 733.558C1949.89 733.558 1944.2 739.784 1944.2 747.236C1944.2 755.226 1949.89 761.208 1957 761.256ZM1934.15 789.05H1979.79C1981.75 789.05 1982.74 787.726 1982.74 785.961C1982.74 780.471 1974.5 766.305 1957 766.305C1939.5 766.305 1931.26 780.471 1931.26 785.961C1931.26 787.726 1932.24 789.05 1934.15 789.05Z" fill="#006CA9"/>
<path d="M1825 814C1852.3 814 1875 791.353 1875 764C1875 736.695 1852.25 714 1824.95 714C1797.6 714 1775 736.695 1775 764C1775 791.353 1797.65 814 1825 814ZM1825 805.667C1801.86 805.667 1783.38 787.136 1783.38 764C1783.38 740.91 1801.81 722.333 1824.95 722.333C1848.04 722.333 1866.61 740.912 1866.67 764C1866.71 787.139 1848.09 805.667 1825 805.667M1825 761.256C1832.1 761.304 1837.79 755.226 1837.79 747.234C1837.79 739.784 1832.1 733.558 1825 733.558C1817.89 733.558 1812.2 739.784 1812.2 747.236C1812.2 755.226 1817.89 761.208 1825 761.256ZM1802.15 789.05H1847.79C1849.75 789.05 1850.74 787.726 1850.74 785.961C1850.74 780.471 1842.5 766.305 1825 766.305C1807.5 766.305 1799.26 780.471 1799.26 785.961C1799.26 787.726 1800.24 789.05 1802.15 789.05Z" fill="#006CA9"/>
<path d="M1165 814C1192.3 814 1215 791.353 1215 764C1215 736.695 1192.25 714 1164.95 714C1137.6 714 1115 736.695 1115 764C1115 791.353 1137.65 814 1165 814ZM1165 805.667C1141.86 805.667 1123.38 787.136 1123.38 764C1123.38 740.91 1141.81 722.333 1164.95 722.333C1188.04 722.333 1206.61 740.912 1206.67 764C1206.71 787.139 1188.09 805.667 1165 805.667M1165 761.256C1172.1 761.304 1177.79 755.226 1177.79 747.234C1177.79 739.784 1172.1 733.558 1165 733.558C1157.89 733.558 1152.2 739.784 1152.2 747.236C1152.2 755.226 1157.89 761.208 1165 761.256ZM1142.15 789.05H1187.79C1189.75 789.05 1190.74 787.726 1190.74 785.961C1190.74 780.471 1182.5 766.305 1165 766.305C1147.5 766.305 1139.26 780.471 1139.26 785.961C1139.26 787.726 1140.24 789.05 1142.15 789.05Z" fill="#006CA9"/>
<path d="M1561 814C1588.3 814 1611 791.353 1611 764C1611 736.695 1588.25 714 1560.95 714C1533.6 714 1511 736.695 1511 764C1511 791.353 1533.65 814 1561 814ZM1561 805.667C1537.86 805.667 1519.38 787.136 1519.38 764C1519.38 740.91 1537.81 722.333 1560.95 722.333C1584.04 722.333 1602.61 740.912 1602.67 764C1602.71 787.139 1584.09 805.667 1561 805.667M1561 761.256C1568.1 761.304 1573.79 755.226 1573.79 747.234C1573.79 739.784 1568.1 733.558 1561 733.558C1553.89 733.558 1548.2 739.784 1548.2 747.236C1548.2 755.226 1553.89 761.208 1561 761.256ZM1538.15 789.05H1583.79C1585.75 789.05 1586.74 787.726 1586.74 785.961C1586.74 780.471 1578.5 766.305 1561 766.305C1543.5 766.305 1535.26 780.471 1535.26 785.961C1535.26 787.726 1536.24 789.05 1538.15 789.05Z" fill="#006CA9"/>
<path d="M1429 814C1456.3 814 1479 791.353 1479 764C1479 736.695 1456.25 714 1428.95 714C1401.6 714 1379 736.695 1379 764C1379 791.353 1401.65 814 1429 814ZM1429 805.667C1405.86 805.667 1387.38 787.136 1387.38 764C1387.38 740.91 1405.81 722.333 1428.95 722.333C1452.04 722.333 1470.61 740.912 1470.67 764C1470.71 787.139 1452.09 805.667 1429 805.667M1429 761.256C1436.1 761.304 1441.79 755.226 1441.79 747.234C1441.79 739.784 1436.1 733.558 1429 733.558C1421.89 733.558 1416.2 739.784 1416.2 747.236C1416.2 755.226 1421.89 761.208 1429 761.256ZM1406.15 789.05H1451.79C1453.75 789.05 1454.74 787.726 1454.74 785.961C1454.74 780.471 1446.5 766.305 1429 766.305C1411.5 766.305 1403.26 780.471 1403.26 785.961C1403.26 787.726 1404.24 789.05 1406.15 789.05Z" fill="#006CA9"/>
<path d="M1297 814C1324.3 814 1347 791.353 1347 764C1347 736.695 1324.25 714 1296.95 714C1269.6 714 1247 736.695 1247 764C1247 791.353 1269.65 814 1297 814ZM1297 805.667C1273.86 805.667 1255.38 787.136 1255.38 764C1255.38 740.91 1273.81 722.333 1296.95 722.333C1320.04 722.333 1338.61 740.912 1338.67 764C1338.71 787.139 1320.09 805.667 1297 805.667M1297 761.256C1304.1 761.304 1309.79 755.226 1309.79 747.234C1309.79 739.784 1304.1 733.558 1297 733.558C1289.89 733.558 1284.2 739.784 1284.2 747.236C1284.2 755.226 1289.89 761.208 1297 761.256ZM1274.15 789.05H1319.79C1321.75 789.05 1322.74 787.726 1322.74 785.961C1322.74 780.471 1314.5 766.305 1297 766.305C1279.5 766.305 1271.26 780.471 1271.26 785.961C1271.26 787.726 1272.24 789.05 1274.15 789.05Z" fill="#006CA9"/>
<path d="M636.999 814C664.304 814 687 791.353 687 764C687 736.695 664.254 714 636.949 714C609.597 714 587 736.695 587 764C587 791.353 609.645 814 636.999 814ZM637.001 805.667C613.86 805.667 595.377 787.136 595.377 764C595.377 740.91 613.81 722.333 636.949 722.333C660.038 722.333 678.615 740.912 678.665 764C678.713 787.139 660.086 805.667 636.997 805.667M636.997 761.256C644.104 761.304 649.791 755.226 649.791 747.234C649.791 739.784 644.104 733.558 636.997 733.558C629.89 733.558 624.203 739.784 624.203 747.236C624.203 755.226 629.888 761.208 636.997 761.256ZM614.155 789.05H659.793C661.755 789.05 662.736 787.726 662.736 785.961C662.736 780.471 654.499 766.305 636.999 766.305C619.499 766.305 611.262 780.471 611.262 785.961C611.262 787.726 612.243 789.05 614.155 789.05Z" fill="#006CA9"/>
<path d="M1033 814C1060.3 814 1083 791.353 1083 764C1083 736.695 1060.25 714 1032.95 714C1005.6 714 983 736.695 983 764C983 791.353 1005.65 814 1033 814ZM1033 805.667C1009.86 805.667 991.377 787.136 991.377 764C991.377 740.91 1009.81 722.333 1032.95 722.333C1056.04 722.333 1074.61 740.912 1074.67 764C1074.71 787.139 1056.09 805.667 1033 805.667M1033 761.256C1040.1 761.304 1045.79 755.226 1045.79 747.234C1045.79 739.784 1040.1 733.558 1033 733.558C1025.89 733.558 1020.2 739.784 1020.2 747.236C1020.2 755.226 1025.89 761.208 1033 761.256ZM1010.15 789.05H1055.79C1057.75 789.05 1058.74 787.726 1058.74 785.961C1058.74 780.471 1050.5 766.305 1033 766.305C1015.5 766.305 1007.26 780.471 1007.26 785.961C1007.26 787.726 1008.24 789.05 1010.15 789.05Z" fill="#006CA9"/>
<path d="M900.999 814C928.304 814 951 791.353 951 764C951 736.695 928.254 714 900.949 714C873.597 714 851 736.695 851 764C851 791.353 873.645 814 900.999 814ZM901.001 805.667C877.86 805.667 859.377 787.136 859.377 764C859.377 740.91 877.81 722.333 900.949 722.333C924.038 722.333 942.615 740.912 942.665 764C942.713 787.139 924.086 805.667 900.997 805.667M900.997 761.256C908.104 761.304 913.791 755.226 913.791 747.234C913.791 739.784 908.104 733.558 900.997 733.558C893.89 733.558 888.203 739.784 888.203 747.236C888.203 755.226 893.888 761.208 900.997 761.256ZM878.155 789.05H923.793C925.755 789.05 926.736 787.726 926.736 785.961C926.736 780.471 918.499 766.305 900.999 766.305C883.499 766.305 875.262 780.471 875.262 785.961C875.262 787.726 876.243 789.05 878.155 789.05Z" fill="#006CA9"/>
<path d="M768.999 814C796.304 814 819 791.353 819 764C819 736.695 796.254 714 768.949 714C741.597 714 719 736.695 719 764C719 791.353 741.645 814 768.999 814ZM769.001 805.667C745.86 805.667 727.377 787.136 727.377 764C727.377 740.91 745.81 722.333 768.949 722.333C792.038 722.333 810.615 740.912 810.665 764C810.713 787.139 792.086 805.667 768.997 805.667M768.997 761.256C776.104 761.304 781.791 755.226 781.791 747.234C781.791 739.784 776.104 733.558 768.997 733.558C761.89 733.558 756.203 739.784 756.203 747.236C756.203 755.226 761.888 761.208 768.997 761.256ZM746.155 789.05H791.793C793.755 789.05 794.736 787.726 794.736 785.961C794.736 780.471 786.499 766.305 768.999 766.305C751.499 766.305 743.262 780.471 743.262 785.961C743.262 787.726 744.243 789.05 746.155 789.05Z" fill="#006CA9"/>
<circle cx="175" cy="598" r="46" stroke="#006CA9" stroke-width="8"/>
<circle cx="2023" cy="598" r="46" stroke="#006CA9" stroke-width="8"/>
<circle cx="1759" cy="598" r="46" stroke="#006CA9" stroke-width="8"/>
<circle cx="1495" cy="598" r="46" stroke="#006CA9" stroke-width="8"/>
<circle cx="1231" cy="598" r="46" stroke="#006CA9" stroke-width="8"/>
<circle cx="967" cy="598" r="46" stroke="#006CA9" stroke-width="8"/>
<circle cx="703" cy="598" r="46" stroke="#006CA9" stroke-width="8"/>
<circle cx="439" cy="598" r="46" stroke="#006CA9" stroke-width="8"/>
<circle cx="1907" cy="432" r="46" stroke="#006CA9" stroke-width="8"/>
<circle cx="323" cy="432" r="46" stroke="#006CA9" stroke-width="8"/>
<circle cx="851" cy="432" r="46" stroke="#006CA9" stroke-width="8"/>
<circle cx="1379" cy="432" r="46" stroke="#006CA9" stroke-width="8"/>
<circle cx="587" cy="224" r="46" stroke="#006CA9" stroke-width="8"/>
<circle cx="1133" cy="50" r="46" stroke="#006CA9" stroke-width="8"/>
<circle cx="1643" cy="224" r="46" stroke="#006CA9" stroke-width="8"/>
<line x1="107.901" y1="717.979" x2="173.901" y2="646.979" stroke="#737370" stroke-width="3"/>
<line x1="239.931" y1="716.053" x2="173.931" y2="649.053" stroke="#737370" stroke-width="3"/>
<line x1="174.389" y1="546.63" x2="322.389" y2="480.63" stroke="#737370" stroke-width="3"/>
<line x1="438.258" y1="549.304" x2="322.258" y2="483.304" stroke="#737370" stroke-width="3"/>
<line x1="322.432" y1="380.612" x2="586.432" y2="272.612" stroke="#737370" stroke-width="3"/>
<line x1="1642.78" y1="175.483" x2="1132.78" y2="98.4832" stroke="#737370" stroke-width="3"/>
<line x1="586.799" y1="172.514" x2="1132.8" y2="98.5136" stroke="#737370" stroke-width="3"/>
<line x1="1906.43" y1="383.388" x2="1642.43" y2="275.388" stroke="#737370" stroke-width="3"/>
<line x1="850.432" y1="383.388" x2="586.432" y2="275.388" stroke="#737370" stroke-width="3"/>
<line x1="1378.43" y1="380.612" x2="1642.43" y2="272.612" stroke="#737370" stroke-width="3"/>
<line x1="2022.26" y1="549.304" x2="1906.26" y2="483.304" stroke="#737370" stroke-width="3"/>
<line x1="1494.26" y1="549.304" x2="1378.26" y2="483.304" stroke="#737370" stroke-width="3"/>
<line x1="966.258" y1="549.304" x2="850.258" y2="483.304" stroke="#737370" stroke-width="3"/>
<line x1="1758.39" y1="546.63" x2="1906.39" y2="480.63" stroke="#737370" stroke-width="3"/>
<line x1="1230.39" y1="546.63" x2="1378.39" y2="480.63" stroke="#737370" stroke-width="3"/>
<line x1="702.389" y1="546.63" x2="850.389" y2="480.63" stroke="#737370" stroke-width="3"/>
<line x1="1031.93" y1="716.053" x2="965.931" y2="649.053" stroke="#737370" stroke-width="3"/>
<line x1="767.901" y1="720.021" x2="701.901" y2="649.021" stroke="#737370" stroke-width="3"/>
<line x1="503.939" y1="715.061" x2="437.939" y2="649.061" stroke="#737370" stroke-width="3"/>
<line x1="635.901" y1="717.979" x2="701.901" y2="646.979" stroke="#737370" stroke-width="3"/>
<line x1="371.901" y1="717.979" x2="437.901" y2="646.979" stroke="#737370" stroke-width="3"/>
<line x1="899.939" y1="712.939" x2="965.939" y2="646.939" stroke="#737370" stroke-width="3"/>
<line x1="1163.9" y1="717.979" x2="1229.9" y2="646.979" stroke="#737370" stroke-width="3"/>
<line x1="1427.9" y1="717.979" x2="1493.9" y2="646.979" stroke="#737370" stroke-width="3"/>
<line x1="1691.9" y1="717.979" x2="1757.9" y2="646.979" stroke="#737370" stroke-width="3"/>
<line x1="1955.9" y1="717.979" x2="2021.9" y2="646.979" stroke="#737370" stroke-width="3"/>
<line x1="1295.93" y1="716.053" x2="1229.93" y2="649.053" stroke="#737370" stroke-width="3"/>
<line x1="1561.95" y1="716.068" x2="1493.95" y2="649.068" stroke="#737370" stroke-width="3"/>
<line x1="1825.96" y1="715.076" x2="1757.96" y2="649.076" stroke="#737370" stroke-width="3"/>
<line x1="2087.9" y1="720.021" x2="2021.9" y2="649.021" stroke="#737370" stroke-width="3"/>
<path d="M113.927 848.636V885H109.524V853.253H109.311L100.433 859.148V854.673L109.524 848.636H113.927Z" fill="#737370"/>
<path d="M964.864 40.7273V46.4091H948.032V40.7273H964.864ZM951.885 68V38.7564C951.885 36.7796 952.27 35.1401 953.039 33.8381C953.82 32.536 954.886 31.5594 956.235 30.9084C957.585 30.2573 959.117 29.9318 960.834 29.9318C961.994 29.9318 963.053 30.0206 964.012 30.1982C964.983 30.3757 965.705 30.5355 966.178 30.6776L964.829 36.3594C964.533 36.2647 964.166 36.1759 963.728 36.093C963.302 36.0102 962.864 35.9688 962.414 35.9688C961.301 35.9688 960.526 36.2292 960.088 36.75C959.65 37.259 959.431 37.9751 959.431 38.8984V68H951.885ZM969.485 68V40.7273H977.049V68H969.485ZM973.285 37.2116C972.16 37.2116 971.196 36.8388 970.391 36.093C969.598 35.3355 969.201 34.4299 969.201 33.3764C969.201 32.3348 969.598 31.4411 970.391 30.6953C971.196 29.9377 972.16 29.5589 973.285 29.5589C974.41 29.5589 975.368 29.9377 976.161 30.6953C976.966 31.4411 977.369 32.3348 977.369 33.3764C977.369 34.4299 976.966 35.3355 976.161 36.093C975.368 36.8388 974.41 37.2116 973.285 37.2116ZM990.672 52.233V68H983.108V40.7273H990.317V45.5391H990.637C991.24 43.9529 992.252 42.6982 993.673 41.7749C995.093 40.8397 996.816 40.3722 998.84 40.3722C1000.73 40.3722 1002.39 40.7865 1003.79 41.6151C1005.2 42.4437 1006.3 43.6274 1007.08 45.1662C1007.86 46.6932 1008.25 48.5161 1008.25 50.6349V68H1000.69V51.9844C1000.7 50.3153 1000.27 49.0133 999.408 48.0781C998.544 47.1312 997.354 46.6577 995.839 46.6577C994.821 46.6577 993.922 46.8767 993.14 47.3146C992.371 47.7526 991.767 48.3918 991.329 49.2322C990.903 50.0608 990.684 51.0611 990.672 52.233ZM1021.99 68.5149C1020.25 68.5149 1018.7 68.2131 1017.34 67.6094C1015.98 66.9938 1014.9 66.0883 1014.11 64.8928C1013.32 63.6854 1012.93 62.1821 1012.93 60.3828C1012.93 58.8677 1013.21 57.5952 1013.77 56.5653C1014.32 55.5355 1015.08 54.7069 1016.04 54.0795C1017 53.4522 1018.09 52.9787 1019.31 52.6591C1020.54 52.3395 1021.83 52.1146 1023.18 51.9844C1024.76 51.8187 1026.04 51.6648 1027.01 51.5227C1027.98 51.3688 1028.69 51.1439 1029.13 50.848C1029.56 50.5521 1029.78 50.1141 1029.78 49.5341V49.4276C1029.78 48.303 1029.43 47.433 1028.72 46.8175C1028.02 46.2019 1027.03 45.8942 1025.74 45.8942C1024.37 45.8942 1023.29 46.196 1022.49 46.7997C1021.68 47.3916 1021.15 48.1373 1020.89 49.0369L1013.89 48.4688C1014.25 46.8116 1014.95 45.3793 1015.99 44.1719C1017.03 42.9527 1018.37 42.0175 1020.02 41.3665C1021.68 40.7036 1023.59 40.3722 1025.77 40.3722C1027.29 40.3722 1028.74 40.5497 1030.12 40.9048C1031.52 41.2599 1032.75 41.8104 1033.83 42.5561C1034.92 43.3018 1035.78 44.2607 1036.41 45.4325C1037.03 46.5926 1037.35 47.9834 1037.35 49.6051V68H1030.17V64.218H1029.96C1029.52 65.0703 1028.94 65.822 1028.2 66.473C1027.47 67.1122 1026.59 67.6153 1025.56 67.9822C1024.53 68.3374 1023.34 68.5149 1021.99 68.5149ZM1024.16 63.2947C1025.27 63.2947 1026.25 63.0758 1027.1 62.6378C1027.95 62.188 1028.62 61.5843 1029.11 60.8267C1029.59 60.0691 1029.84 59.2109 1029.84 58.2521V55.358C1029.6 55.5118 1029.27 55.6539 1028.86 55.7841C1028.46 55.9025 1028 56.0149 1027.49 56.1214C1026.98 56.2161 1026.48 56.3049 1025.97 56.3878C1025.46 56.4588 1025 56.5239 1024.58 56.5831C1023.69 56.7133 1022.92 56.9205 1022.26 57.2045C1021.59 57.4886 1021.08 57.8733 1020.71 58.3587C1020.34 58.8321 1020.16 59.424 1020.16 60.1342C1020.16 61.1641 1020.53 61.9512 1021.28 62.4957C1022.04 63.0284 1022.99 63.2947 1024.16 63.2947ZM1050.78 31.6364V68H1043.22V31.6364H1050.78Z" fill="#FA8F00"/>
<path d="M469.548 205.636V242H461.86V212.934H461.647L453.319 218.154V211.336L462.321 205.636H469.548ZM494.1 203.932L482.381 247.469H475.865L487.583 203.932H494.1ZM497.673 242V236.46L510.617 224.475C511.718 223.41 512.641 222.451 513.387 221.599C514.144 220.746 514.718 219.912 515.109 219.095C515.5 218.267 515.695 217.373 515.695 216.414C515.695 215.349 515.452 214.431 514.967 213.662C514.482 212.881 513.819 212.283 512.978 211.869C512.138 211.442 511.185 211.229 510.12 211.229C509.007 211.229 508.036 211.454 507.208 211.904C506.379 212.354 505.74 212.999 505.29 213.839C504.84 214.68 504.616 215.68 504.616 216.84H497.318C497.318 214.461 497.857 212.395 498.934 210.643C500.011 208.892 501.52 207.536 503.461 206.577C505.403 205.619 507.64 205.139 510.173 205.139C512.777 205.139 515.044 205.601 516.973 206.524C518.915 207.436 520.424 208.702 521.501 210.324C522.578 211.946 523.117 213.804 523.117 215.899C523.117 217.272 522.845 218.628 522.3 219.965C521.767 221.303 520.815 222.788 519.441 224.422C518.068 226.044 516.133 227.991 513.635 230.263L508.326 235.466V235.714H523.596V242H497.673Z" fill="#FA8F00"/>
<path d="M42.7668 577.636V614H35.0786V584.934H34.8655L26.5381 590.154V583.336L35.5402 577.636H42.7668ZM67.3184 575.932L55.5997 619.469H49.0834L60.8021 575.932H67.3184ZM84.4571 614.497C81.7227 614.497 79.2902 614.053 77.1595 613.165C75.0407 612.266 73.3776 611.041 72.1702 609.49C70.9628 607.939 70.3591 606.182 70.3591 604.217C70.3591 602.701 70.7024 601.311 71.3889 600.044C72.0873 598.766 73.0343 597.706 74.2298 596.866C75.4254 596.013 76.763 595.469 78.2426 595.232V594.984C76.3013 594.593 74.727 593.652 73.5196 592.161C72.3122 590.657 71.7085 588.911 71.7085 586.923C71.7085 585.04 72.259 583.366 73.3598 581.898C74.4607 580.418 75.9699 579.258 77.8875 578.418C79.817 577.565 82.0068 577.139 84.4571 577.139C86.9074 577.139 89.0914 577.565 91.009 578.418C92.9384 579.27 94.4536 580.436 95.5544 581.915C96.6553 583.383 97.2116 585.052 97.2235 586.923C97.2116 588.923 96.5961 590.669 95.3769 592.161C94.1576 593.652 92.5951 594.593 90.6894 594.984V595.232C92.1453 595.469 93.4652 596.013 94.6489 596.866C95.8444 597.706 96.7914 598.766 97.4898 600.044C98.2 601.311 98.5611 602.701 98.5729 604.217C98.5611 606.182 97.9514 607.939 96.7441 609.49C95.5367 611.041 93.8676 612.266 91.7369 613.165C89.6181 614.053 87.1915 614.497 84.4571 614.497ZM84.4571 608.851C85.6763 608.851 86.7417 608.632 87.6531 608.194C88.5646 607.744 89.2748 607.129 89.7838 606.347C90.3047 605.554 90.5651 604.643 90.5651 603.613C90.5651 602.559 90.2987 601.63 89.7661 600.825C89.2334 600.009 88.5113 599.369 87.5999 598.908C86.6884 598.434 85.6408 598.197 84.4571 598.197C83.2852 598.197 82.2377 598.434 81.3144 598.908C80.3911 599.369 79.6631 600.009 79.1304 600.825C78.6096 601.63 78.3492 602.559 78.3492 603.613C78.3492 604.643 78.6037 605.554 79.1127 606.347C79.6217 607.129 80.3378 607.744 81.2611 608.194C82.1844 608.632 83.2497 608.851 84.4571 608.851ZM84.4571 592.604C85.4751 592.604 86.3807 592.397 87.1737 591.983C87.9668 591.569 88.5883 590.995 89.0381 590.261C89.4879 589.527 89.7128 588.68 89.7128 587.722C89.7128 586.775 89.4879 585.946 89.0381 585.236C88.5883 584.514 87.9727 583.951 87.1915 583.549C86.4102 583.135 85.4988 582.928 84.4571 582.928C83.4273 582.928 82.5158 583.135 81.7227 583.549C80.9297 583.951 80.3082 584.514 79.8584 585.236C79.4204 585.946 79.2014 586.775 79.2014 587.722C79.2014 588.68 79.4263 589.527 79.8762 590.261C80.326 590.995 80.9474 591.569 81.7405 591.983C82.5336 592.397 83.4391 592.604 84.4571 592.604Z" fill="#FA8F00"/>
<path d="M201.352 411.636V448H193.664V418.934H193.45L185.123 424.154V417.336L194.125 411.636H201.352ZM225.903 409.932L214.185 453.469H207.668L219.387 409.932H225.903ZM228.926 441.608V435.553L244.107 411.636H249.328V420.017H246.238L236.668 435.163V435.447H258.241V441.608H228.926ZM246.38 448V439.761L246.522 437.08V411.636H253.731V448H246.38Z" fill="#FA8F00"/>
<path d="M2077.83 848.636V885H2073.42V853.253H2073.21L2064.33 859.148V854.673L2073.42 848.636H2077.83ZM2100.36 885.497C2098.87 885.473 2097.38 885.189 2095.88 884.645C2094.39 884.1 2093.03 883.183 2091.8 881.893C2090.57 880.591 2089.58 878.833 2088.84 876.619C2088.09 874.394 2087.72 871.6 2087.72 868.239C2087.72 865.019 2088.02 862.166 2088.62 859.68C2089.23 857.183 2090.1 855.082 2091.25 853.377C2092.4 851.661 2093.78 850.359 2095.4 849.471C2097.04 848.583 2098.88 848.139 2100.93 848.139C2102.96 848.139 2104.77 848.548 2106.36 849.364C2107.96 850.169 2109.26 851.294 2110.27 852.738C2111.27 854.182 2111.92 855.845 2112.22 857.727H2107.89C2107.48 856.094 2106.7 854.738 2105.54 853.661C2104.38 852.584 2102.84 852.045 2100.93 852.045C2098.11 852.045 2095.89 853.271 2094.27 855.721C2092.66 858.171 2091.85 861.61 2091.84 866.037H2092.12C2092.78 865.031 2093.57 864.173 2094.48 863.462C2095.4 862.74 2096.42 862.184 2097.54 861.793C2098.65 861.403 2099.83 861.207 2101.07 861.207C2103.15 861.207 2105.06 861.728 2106.79 862.77C2108.51 863.8 2109.9 865.226 2110.94 867.049C2111.98 868.86 2112.5 870.938 2112.5 873.281C2112.5 875.53 2112 877.59 2110.99 879.46C2109.99 881.319 2108.57 882.798 2106.75 883.899C2104.94 884.988 2102.81 885.521 2100.36 885.497ZM2100.36 881.591C2101.85 881.591 2103.19 881.218 2104.37 880.472C2105.57 879.727 2106.51 878.726 2107.19 877.472C2107.89 876.217 2108.24 874.82 2108.24 873.281C2108.24 871.778 2107.9 870.411 2107.23 869.18C2106.57 867.937 2105.65 866.948 2104.48 866.214C2103.32 865.481 2101.99 865.114 2100.5 865.114C2099.38 865.114 2098.33 865.339 2097.36 865.788C2096.39 866.226 2095.53 866.83 2094.8 867.599C2094.08 868.369 2093.51 869.251 2093.1 870.245C2092.68 871.228 2092.48 872.263 2092.48 873.352C2092.48 874.796 2092.81 876.146 2093.49 877.401C2094.17 878.655 2095.11 879.667 2096.29 880.437C2097.49 881.206 2098.84 881.591 2100.36 881.591Z" fill="#737370"/>
<path d="M355.235 885.284C354.359 885.284 353.607 884.97 352.98 884.343C352.353 883.716 352.039 882.964 352.039 882.088C352.039 881.212 352.353 880.46 352.98 879.833C353.607 879.206 354.359 878.892 355.235 878.892C356.111 878.892 356.863 879.206 357.49 879.833C358.117 880.46 358.431 881.212 358.431 882.088C358.431 882.668 358.283 883.201 357.987 883.686C357.703 884.171 357.318 884.562 356.833 884.858C356.359 885.142 355.827 885.284 355.235 885.284ZM369.004 885.284C368.128 885.284 367.377 884.97 366.749 884.343C366.122 883.716 365.808 882.964 365.808 882.088C365.808 881.212 366.122 880.46 366.749 879.833C367.377 879.206 368.128 878.892 369.004 878.892C369.88 878.892 370.632 879.206 371.259 879.833C371.887 880.46 372.2 881.212 372.2 882.088C372.2 882.668 372.052 883.201 371.757 883.686C371.472 884.171 371.088 884.562 370.602 884.858C370.129 885.142 369.596 885.284 369.004 885.284ZM382.774 885.284C381.898 885.284 381.146 884.97 380.519 884.343C379.892 883.716 379.578 882.964 379.578 882.088C379.578 881.212 379.892 880.46 380.519 879.833C381.146 879.206 381.898 878.892 382.774 878.892C383.65 878.892 384.402 879.206 385.029 879.833C385.656 880.46 385.97 881.212 385.97 882.088C385.97 882.668 385.822 883.201 385.526 883.686C385.242 884.171 384.857 884.562 384.372 884.858C383.898 885.142 383.366 885.284 382.774 885.284Z" fill="#737370"/>
<path d="M1943.23 885.284C1942.36 885.284 1941.61 884.97 1940.98 884.343C1940.35 883.716 1940.04 882.964 1940.04 882.088C1940.04 881.212 1940.35 880.46 1940.98 879.833C1941.61 879.206 1942.36 878.892 1943.23 878.892C1944.11 878.892 1944.86 879.206 1945.49 879.833C1946.12 880.46 1946.43 881.212 1946.43 882.088C1946.43 882.668 1946.28 883.201 1945.99 883.686C1945.7 884.171 1945.32 884.562 1944.83 884.858C1944.36 885.142 1943.83 885.284 1943.23 885.284ZM1957 885.284C1956.13 885.284 1955.38 884.97 1954.75 884.343C1954.12 883.716 1953.81 882.964 1953.81 882.088C1953.81 881.212 1954.12 880.46 1954.75 879.833C1955.38 879.206 1956.13 878.892 1957 878.892C1957.88 878.892 1958.63 879.206 1959.26 879.833C1959.89 880.46 1960.2 881.212 1960.2 882.088C1960.2 882.668 1960.05 883.201 1959.76 883.686C1959.47 884.171 1959.09 884.562 1958.6 884.858C1958.13 885.142 1957.6 885.284 1957 885.284ZM1970.77 885.284C1969.9 885.284 1969.15 884.97 1968.52 884.343C1967.89 883.716 1967.58 882.964 1967.58 882.088C1967.58 881.212 1967.89 880.46 1968.52 879.833C1969.15 879.206 1969.9 878.892 1970.77 878.892C1971.65 878.892 1972.4 879.206 1973.03 879.833C1973.66 880.46 1973.97 881.212 1973.97 882.088C1973.97 882.668 1973.82 883.201 1973.53 883.686C1973.24 884.171 1972.86 884.562 1972.37 884.858C1971.9 885.142 1971.37 885.284 1970.77 885.284Z" fill="#737370"/>
<path d="M229.627 885V881.804L241.63 868.665C243.039 867.126 244.199 865.788 245.11 864.652C246.022 863.504 246.697 862.427 247.135 861.42C247.584 860.402 247.809 859.337 247.809 858.224C247.809 856.946 247.502 855.839 246.886 854.904C246.282 853.969 245.454 853.247 244.4 852.738C243.347 852.229 242.163 851.974 240.849 851.974C239.452 851.974 238.233 852.264 237.191 852.844C236.162 853.413 235.363 854.212 234.794 855.241C234.238 856.271 233.96 857.479 233.96 858.864H229.77C229.77 856.733 230.261 854.863 231.243 853.253C232.226 851.643 233.563 850.388 235.256 849.489C236.961 848.589 238.872 848.139 240.991 848.139C243.122 848.139 245.01 848.589 246.655 849.489C248.301 850.388 249.591 851.602 250.526 853.129C251.461 854.656 251.929 856.354 251.929 858.224C251.929 859.562 251.686 860.87 251.201 862.148C250.727 863.415 249.899 864.83 248.715 866.392C247.543 867.943 245.915 869.837 243.832 872.074L235.664 880.81V881.094H252.568V885H229.627Z" fill="#737370"/>
</svg>
